<svg width="144" height="144" viewBox="0 0 144 144" fill="none" xmlns="http://www.w3.org/2000/svg">
<path d="M116 62V38C116 35.7909 114.209 34 112 34H28C25.7909 34 24 35.7909 24 38V102C24 104.209 25.7909 106 28 106H75" stroke="#262329" stroke-width="2" stroke-linecap="round" stroke-linejoin="round"/>
<rect x="32" y="55" width="20" height="20" rx="2" fill="#56CD92"/>
<rect x="60" y="55" width="32" height="4" rx="2" fill="#56CD92"/>
<rect x="60" y="65" width="20" height="4" rx="2" fill="#56CD92"/>
<path d="M24 47.0547H115.5" stroke="#262329" stroke-width="2" stroke-miterlimit="10" stroke-linecap="round" stroke-linejoin="round"/>
<path d="M31 42.5C32.1046 42.5 33 41.6046 33 40.5C33 39.3954 32.1046 38.5 31 38.5C29.8954 38.5 29 39.3954 29 40.5C29 41.6046 29.8954 42.5 31 42.5Z" fill="#262329"/>
<path d="M38 42.5C39.1046 42.5 40 41.6046 40 40.5C40 39.3954 39.1046 38.5 38 38.5C36.8954 38.5 36 39.3954 36 40.5C36 41.6046 36.8954 42.5 38 42.5Z" fill="#262329"/>
<path d="M45 42.5C46.1046 42.5 47 41.6046 47 40.5C47 39.3954 46.1046 38.5 45 38.5C43.8954 38.5 43 39.3954 43 40.5C43 41.6046 43.8954 42.5 45 42.5Z" fill="#262329"/>
<circle cx="107" cy="95" r="24" fill="white" stroke="#262329" stroke-width="2" stroke-linecap="round" stroke-linejoin="round"/>
<path d="M122.344 104.411C123.285 104.988 124.527 104.697 125.008 103.702C126.259 101.113 126.94 98.2776 126.996 95.3871C127.065 91.8281 126.183 88.3152 124.441 85.2111C122.698 82.1069 120.159 79.524 117.085 77.729C114.589 76.2712 111.813 75.3759 108.951 75.0954C107.852 74.9876 106.956 75.8955 106.959 77L106.997 93.8835C106.999 94.5774 107.36 95.2209 107.952 95.5838L122.344 104.411Z" fill="#56CD92"/>
<path d="M107 95L121.5 104" stroke="#262329" stroke-width="2" stroke-linecap="round" stroke-linejoin="round"/>
</svg>
